<?xml version="1.0" encoding="UTF-8"?>
<svg height="128px" viewBox="0 0 128 128" width="128px" xmlns="http://www.w3.org/2000/svg" xmlns:xlink="http://www.w3.org/1999/xlink">
    <linearGradient id="a" gradientTransform="matrix(0 -0.932866 -1 0 0.000045 -158.918314)" gradientUnits="userSpaceOnUse" x1="-280.623596" x2="-287.76535" y1="-66.117432" y2="-66.117432">
        <stop offset="0" stop-color="#313133"/>
        <stop offset="1" stop-color="#9a9996"/>
    </linearGradient>
    <linearGradient id="b" gradientTransform="matrix(0 -1 -1 0 0.000051 -160.000093)" gradientUnits="userSpaceOnUse" x1="-271.974609" x2="-266.414551" y1="-62.938477" y2="-62.938477">
        <stop offset="0" stop-color="#aeadab"/>
        <stop offset="1" stop-color="#aeadab" stop-opacity="0"/>
    </linearGradient>
    <linearGradient id="c" gradientTransform="matrix(2.381786 0 0 2.083491 -2851.15317 1648.156841)" gradientUnits="userSpaceOnUse" x1="1202" x2="1246" y1="-735" y2="-735">
        <stop offset="0" stop-color="#9a9996" stop-opacity="0"/>
        <stop offset="0.0909091" stop-color="#9a9996"/>
        <stop offset="0.909091" stop-color="#9a9996"/>
        <stop offset="1" stop-color="#9a9996" stop-opacity="0"/>
    </linearGradient>
    <linearGradient id="d" gradientTransform="matrix(0.25 0 0 0.166667 -163.999958 180.666578)" gradientUnits="userSpaceOnUse" x1="904" x2="904" y1="-340" y2="-385.948242">
        <stop offset="0" stop-color="#77767b"/>
        <stop offset="0.603496" stop-color="#c0bfbc"/>
        <stop offset="1" stop-color="#aeadab"/>
    </linearGradient>
    <linearGradient id="e" gradientTransform="matrix(0.45451 0 0 0.416631 -1210.292114 563.665672)" gradientUnits="userSpaceOnUse" x1="2759.330811" x2="2759.330811" y1="-1310.744141" y2="-1259.624146">
        <stop offset="0" stop-color="#5e5c64"/>
        <stop offset="1" stop-color="#3d3846"/>
    </linearGradient>
    <linearGradient id="f" gradientTransform="matrix(0.45451 0 0 0.416631 -1210.292114 563.665672)" gradientUnits="userSpaceOnUse" x1="2689.251953" x2="2918.069824" y1="-1106.802979" y2="-1106.802979">
        <stop offset="0" stop-color="#5e5c64"/>
        <stop offset="0.0576991" stop-color="#deddda"/>
        <stop offset="0.122204" stop-color="#77767b"/>
        <stop offset="0.873306" stop-color="#9a9996"/>
        <stop offset="0.955997" stop-color="#c0bfbc"/>
        <stop offset="1" stop-color="#241f31"/>
    </linearGradient>
    <path d="m 68 117.210938 v -29.851563 h -8 v 29.851563 z m 0 0" fill="url(#a)"/>
    <path d="m 63.796875 117.210938 v -29.851563 h -1.796875 v 29.851563 z m 0 0" fill="url(#b)"/>
    <path d="m 8.179688 117.832031 h 111.945312 v 4.167969 h -111.945312 z m 0 0" fill="url(#c)"/>
    <path d="m 51.730469 116 h 24.539062 c 2.0625 0 3.730469 1.667969 3.730469 3.730469 v 0.539062 c 0 2.0625 -1.667969 3.730469 -3.730469 3.730469 h -24.539062 c -2.0625 0 -3.730469 -1.667969 -3.730469 -3.730469 v -0.539062 c 0 -2.0625 1.667969 -3.730469 3.730469 -3.730469 z m 0 0" fill="url(#d)"/>
    <path d="m 21.976562 11.074219 c -5.527343 0 -9.976562 4.082031 -9.976562 9.148437 v 78.6875 c 0 5.066406 4.449219 9.144532 9.976562 9.144532 h 84.042969 c 5.53125 0 9.980469 -4.078126 9.980469 -9.144532 v -65.933594 c 0 -6.0625 -5.359375 -10.976562 -11.972656 -10.976562 h -46.027344 c -2.453125 0 -4.695312 -1.265625 -5.796875 -3.273438 l -1.503906 -2.738281 c -1.65625 -3.011719 -5.019531 -4.914062 -8.699219 -4.914062 z m 0 0" fill="url(#e)"/>
    <path d="m 65.976562 33.027344 c -2.746093 0 -5.226562 1.007812 -7.027343 2.640625 c -2.273438 2.066406 -5.382813 4.675781 -8.632813 4.675781 h -28.339844 c -5.527343 0 -9.976562 4.078125 -9.976562 9.144531 v 49.421875 c 0 5.066406 4.449219 9.144532 9.976562 9.144532 h 84.042969 c 5.53125 0 9.980469 -4.078126 9.980469 -9.144532 v -56.738281 c 0 -5.066406 -4.449219 -9.144531 -9.980469 -9.144531 z m 0 0" fill="url(#f)"/>
    <path d="m 65.976562 29.367188 c -2.746093 0 -5.226562 1.007812 -7.027343 2.644531 c -2.273438 2.0625 -5.382813 4.671875 -8.632813 4.671875 h -28.339844 c -5.527343 0 -9.976562 4.082031 -9.976562 9.148437 v 51.199219 c 0 5.066406 4.449219 9.144531 9.976562 9.144531 h 84.042969 c 5.53125 0 9.980469 -4.078125 9.980469 -9.144531 v -58.515625 c 0 -5.070313 -4.449219 -9.148437 -9.980469 -9.148437 z m 0 0" fill="#c0bfbc"/>
</svg>
