<?xml version="1.0" encoding="UTF-8"?>
<svg height="128px" viewBox="0 0 128 128" width="128px" xmlns="http://www.w3.org/2000/svg" xmlns:xlink="http://www.w3.org/1999/xlink">
    <linearGradient id="a" gradientTransform="matrix(0.45451 0 0 0.455522 -1210.292014 615.699877)" gradientUnits="userSpaceOnUse" x1="2689.251953" x2="2918.069824" y1="-1106.802979" y2="-1106.802979">
        <stop offset="0" stop-color="#241f31"/>
        <stop offset="0.05" stop-color="#77767b"/>
        <stop offset="0.12" stop-color="#3d3846"/>
        <stop offset="0.88" stop-color="#3d3846"/>
        <stop offset="0.95" stop-color="#77767b"/>
        <stop offset="1" stop-color="#241f31"/>
    </linearGradient>
    <path d="m 21.980469 11.527344 c -5.53125 0 -9.980469 4.460937 -9.980469 10 v 86.03125 c 0 5.542968 4.449219 10 9.980469 10 h 84.042969 c 5.527343 0 9.976562 -4.457032 9.976562 -10 v -72.085938 c 0 -6.628906 -5.359375 -12 -11.972656 -12 h -46.027344 c -2.453125 0 -4.695312 -1.386718 -5.796875 -3.582031 l -1.503906 -2.992187 c -1.65625 -3.292969 -5.019531 -5.371094 -8.699219 -5.371094 z m 0 0" fill="#3d3846"/>
    <path d="m 65.980469 35.527344 c -2.75 0 -5.230469 1.101562 -7.03125 2.890625 c -2.273438 2.253906 -5.382813 5.109375 -8.632813 5.109375 h -28.335937 c -5.53125 0 -9.980469 4.460937 -9.980469 10 v 54.03125 c 0 5.542968 4.449219 10 9.980469 10 h 84.042969 c 5.527343 0 9.976562 -4.457032 9.976562 -10 v -62.03125 c 0 -5.539063 -4.449219 -10 -9.976562 -10 z m 0 0" fill="url(#a)"/>
    <path d="m 65.980469 31.527344 c -2.75 0 -5.230469 1.101562 -7.03125 2.890625 c -2.273438 2.253906 -5.382813 5.109375 -8.632813 5.109375 h -28.335937 c -5.53125 0 -9.980469 4.460937 -9.980469 10 v 55.976562 c 0 5.539063 4.449219 10 9.980469 10 h 84.042969 c 5.527343 0 9.976562 -4.460937 9.976562 -10 v -63.976562 c 0 -5.539063 -4.449219 -10 -9.976562 -10 z m 0 0" fill="#77767b"/>
    <g fill="#f6f5f4">
        <path d="m 50 70 v 2 h 16 v -2 z m 0 0"/>
        <path d="m 54 64 c -3.289062 0 -6 2.710938 -6 6 v 16 c 0 3.289062 2.710938 6 6 6 h 20 c 3.289062 0 6 -2.710938 6 -6 v -12 c 0 -3.289062 -2.710938 -6 -6 -6 h -7.171875 l -3.414063 -3.414062 c -0.375 -0.375 -0.882812 -0.585938 -1.414062 -0.585938 z m 0 4 h 7.171875 l 3.414063 3.414062 c 0.375 0.375 0.882812 0.585938 1.414062 0.585938 h 8 c 1.125 0 2 0.875 2 2 v 12 c 0 1.132812 -0.875 2 -2 2 h -20 c -1.125 0 -2 -0.867188 -2 -2 v -16 c 0 -1.125 0.875 -2 2 -2 z m 0 0"/>
    </g>
</svg>
